<svg width="845" height="46" viewBox="0 0 845 46" fill="none" xmlns="http://www.w3.org/2000/svg">
<style>.text{fill:#606060}@media (prefers-color-scheme:dark){.text{fill:#f6f6f6}}</style>
<g clip-path="url(#clip0_18_216)">
<path d="M20.682 13.08C20.682 12.1267 20.8507 11.1953 21.188 10.286C21.54 9.362 22.046 8.526 22.706 7.778C23.366 7.01533 24.1727 6.414 25.126 5.974C26.0793 5.51933 27.1647 5.292 28.382 5.292C29.8193 5.292 31.0587 5.60733 32.1 6.238C33.156 6.86867 33.9407 7.69 34.454 8.702L32.122 10.308C31.858 9.72133 31.5133 9.25933 31.088 8.922C30.6627 8.57 30.208 8.328 29.724 8.196C29.24 8.04933 28.7633 7.976 28.294 7.976C27.5313 7.976 26.864 8.13 26.292 8.438C25.7347 8.746 25.2653 9.14933 24.884 9.648C24.5027 10.1467 24.2167 10.704 24.026 11.32C23.85 11.936 23.762 12.552 23.762 13.168C23.762 13.8573 23.872 14.5247 24.092 15.17C24.312 15.8007 24.62 16.3653 25.016 16.864C25.4267 17.348 25.9107 17.7367 26.468 18.03C27.04 18.3087 27.6633 18.448 28.338 18.448C28.822 18.448 29.3133 18.3673 29.812 18.206C30.3107 18.0447 30.7727 17.788 31.198 17.436C31.6233 17.084 31.9533 16.6293 32.188 16.072L34.674 17.502C34.366 18.2793 33.86 18.9393 33.156 19.482C32.4667 20.0247 31.6893 20.4353 30.824 20.714C29.9587 20.9927 29.1007 21.132 28.25 21.132C27.1353 21.132 26.116 20.9047 25.192 20.45C24.268 19.9807 23.4687 19.3647 22.794 18.602C22.134 17.8247 21.6133 16.9593 21.232 16.006C20.8653 15.038 20.682 14.0627 20.682 13.08ZM43.1827 21.11C42.0387 21.11 40.9973 20.89 40.0587 20.45C39.1347 20.01 38.3353 19.416 37.6607 18.668C37.0007 17.9053 36.4873 17.0547 36.1207 16.116C35.754 15.1627 35.5707 14.1873 35.5707 13.19C35.5707 12.1487 35.7613 11.1587 36.1427 10.22C36.5387 9.26667 37.074 8.42333 37.7487 7.69C38.438 6.942 39.2447 6.35533 40.1687 5.93C41.1073 5.49 42.134 5.27 43.2487 5.27C44.378 5.27 45.4047 5.49733 46.3287 5.952C47.2673 6.40667 48.0667 7.01533 48.7267 7.778C49.3867 8.54067 49.9 9.39133 50.2667 10.33C50.6333 11.2687 50.8167 12.2367 50.8167 13.234C50.8167 14.2607 50.626 15.2507 50.2447 16.204C49.8633 17.1427 49.328 17.986 48.6387 18.734C47.964 19.4673 47.1573 20.0467 46.2187 20.472C45.2947 20.8973 44.2827 21.11 43.1827 21.11ZM38.6507 13.19C38.6507 13.8647 38.7533 14.5173 38.9587 15.148C39.164 15.7787 39.4573 16.3433 39.8387 16.842C40.2347 17.326 40.7113 17.7147 41.2687 18.008C41.8407 18.2867 42.486 18.426 43.2047 18.426C43.938 18.426 44.5907 18.2793 45.1627 17.986C45.7347 17.678 46.2113 17.2747 46.5927 16.776C46.974 16.2627 47.26 15.698 47.4507 15.082C47.656 14.4513 47.7587 13.8207 47.7587 13.19C47.7587 12.5153 47.6487 11.87 47.4287 11.254C47.2233 10.6233 46.9227 10.066 46.5267 9.582C46.1453 9.08333 45.6687 8.69467 45.0967 8.416C44.5393 8.12267 43.9087 7.976 43.2047 7.976C42.4567 7.976 41.7967 8.13 41.2247 8.438C40.6673 8.73133 40.198 9.12733 39.8167 9.626C39.4353 10.1247 39.142 10.682 38.9367 11.298C38.746 11.914 38.6507 12.5447 38.6507 13.19ZM56.1816 10.968V21H53.1456V5.38H55.5656L63.6396 15.676V5.402H66.6756V21H64.1456L56.1816 10.968ZM81.6069 8.042H76.6129V21H73.5989V8.042H68.6049V5.38H81.6069V8.042ZM86.331 5.38H89.411L95.153 21H92.029L90.577 17.106H85.121L83.691 21H80.567L86.331 5.38ZM90.027 14.972L87.871 8.526L85.627 14.972H90.027ZM95.3187 13.08C95.3187 12.1267 95.4874 11.1953 95.8247 10.286C96.1767 9.362 96.6827 8.526 97.3427 7.778C98.0027 7.01533 98.8094 6.414 99.7627 5.974C100.716 5.51933 101.801 5.292 103.019 5.292C104.456 5.292 105.695 5.60733 106.737 6.238C107.793 6.86867 108.577 7.69 109.091 8.702L106.759 10.308C106.495 9.72133 106.15 9.25933 105.725 8.922C105.299 8.57 104.845 8.328 104.361 8.196C103.877 8.04933 103.4 7.976 102.931 7.976C102.168 7.976 101.501 8.13 100.929 8.438C100.371 8.746 99.9021 9.14933 99.5207 9.648C99.1394 10.1467 98.8534 10.704 98.6627 11.32C98.4867 11.936 98.3987 12.552 98.3987 13.168C98.3987 13.8573 98.5087 14.5247 98.7287 15.17C98.9487 15.8007 99.2567 16.3653 99.6527 16.864C100.063 17.348 100.547 17.7367 101.105 18.03C101.677 18.3087 102.3 18.448 102.975 18.448C103.459 18.448 103.95 18.3673 104.449 18.206C104.947 18.0447 105.409 17.788 105.835 17.436C106.26 17.084 106.59 16.6293 106.825 16.072L109.311 17.502C109.003 18.2793 108.497 18.9393 107.793 19.482C107.103 20.0247 106.326 20.4353 105.461 20.714C104.595 20.9927 103.737 21.132 102.887 21.132C101.772 21.132 100.753 20.9047 99.8287 20.45C98.9047 19.9807 98.1054 19.3647 97.4307 18.602C96.7707 17.8247 96.2501 16.9593 95.8687 16.006C95.5021 15.038 95.3187 14.0627 95.3187 13.08ZM123.029 8.042H118.035V21H115.021V8.042H110.027V5.38H123.029V8.042Z" class="text"/>
</g>
<defs>
<clipPath id="clip0_18_216">
<rect width="845" height="46" class="text"/>
</clipPath>
</defs>
</svg>
